# xmcd
#
# Track frame offsets: 
#        150
#        20448
#        39105
#        55264
#        72869
#        87756
#        101552
#        119433
#        133582
#        144423
#        156067
#        165975
#        180865
#
# Disc length: 2603 seconds
#
# Revision: 0
# Processed by: cddbd v1.5.2PL0 Copyright (c) Steve Scherf et al.
# Submitted via: ExactAudioCopy v0.95b3
#
DISCID=990a290d
DTITLE=Skapiti Coasters - Life of Fun
DYEAR=2014
DGENRE=Ska
TTITLE0=Let's Go
TTITLE1=Down Down Down
TTITLE2=Mr Big Shot
TTITLE3=Paekak After Midnight
TTITLE4=Broken Heart
TTITLE5=Recession
TTITLE6=Life of Fun
TTITLE7=Rhino
TTITLE8=Time of My Life
TTITLE9=My Church
TTITLE10=Good Manners
TTITLE11=Trouble
TTITLE12=We Don't Like It
EXTD=
EXTT0=
EXTT1=
EXTT2=
EXTT3=
EXTT4=
EXTT5=
EXTT6=
EXTT7=
EXTT8=
EXTT9=
EXTT10=
EXTT11=
EXTT12=
PLAYORDER=
